<svg xmlns="http://www.w3.org/2000/svg" version="1.1" xmlns:xlink="http://www.w3.org/1999/xlink" xmlns:svgjs="http://svgjs.dev/svgjs" width="1000" height="1000" viewBox="0 0 1000 1000"><rect width="1000" height="1000" fill="#096a2e"></rect><g transform="matrix(0.7,0,0,0.7,149.575770097126,311.98355114725916)"><svg viewBox="0 0 396 213" data-background-color="#096a2e" preserveAspectRatio="xMidYMid meet" height="537" width="1000" xmlns="http://www.w3.org/2000/svg" xmlns:xlink="http://www.w3.org/1999/xlink"><g id="tight-bounds" transform="matrix(1,0,0,1,0.23999321162955312,0.037652582159637404)"><svg viewBox="0 0 395.52 212.92469483568073" height="212.92469483568073" width="395.52"><g><svg viewBox="0 0 395.52 212.92469483568073" height="212.92469483568073" width="395.52"><g><svg viewBox="0 0 395.52 212.92469483568073" height="212.92469483568073" width="395.52"><g id="textblocktransform"><svg viewBox="0 0 395.52 212.92469483568073" height="212.92469483568073" width="395.52" id="textblock"><g><svg viewBox="0 0 395.52 212.92469483568073" height="212.92469483568073" width="395.52"><g><svg viewBox="0 0 395.52 212.92469483568073" height="212.92469483568073" width="395.52"><g transform="matrix(1,0,0,1,0,0)"><svg width="395.52" viewBox="3.700000047683716 -34.400001525878906 63.89999771118164 34.400001525878906" height="212.92469483568073" data-palette-color="#c9efc7"><path d="M23-34.4Q26.2-34.4 28.7-32.93 31.2-31.45 32.6-28.88 34-26.3 34-23.1L34-23.1 34-22.45Q34-19.25 32.6-16.65 31.2-14.05 28.7-12.58 26.2-11.1 23-11.1L23-11.1 14.75-11.1 14.75 0 3.7 0 3.7-34.4 23-34.4ZM14.75-26.25L14.75-19.15 19.3-19.15Q21.05-19.15 21.93-20.05 22.8-20.95 22.8-22.5L22.8-22.5 22.8-22.9Q22.8-24.5 21.93-25.38 21.05-26.25 19.3-26.25L19.3-26.25 14.75-26.25ZM39.8 0L39.8-34.4 67.6-34.4 67.6-26.15 50.85-26.15 50.85-20.25 65.25-20.25 65.25-12.35 50.85-12.35 50.85 0 39.8 0Z" opacity="1" transform="matrix(1,0,0,1,0,0)" fill="#c9efc7" class="undefined-text-0" data-fill-palette-color="primary" id="text-0"></path></svg></g></svg></g></svg></g></svg></g></svg></g><g></g></svg></g><defs></defs></svg><rect width="395.52" height="212.92469483568073" fill="none" stroke="none" visibility="hidden"></rect></g></svg></g></svg>